<?xml version="1.0" encoding="UTF-8" standalone="no"?>
<!-- Generator: Adobe Illustrator 16.0.4, SVG Export Plug-In . SVG Version: 6.00 Build 0)  -->

<svg
   version="1.1"
   id="Layer_1"
   x="0px"
   y="0px"
   width="162.0965"
   height="47.646999"
   viewBox="0 0 162.0965 47.646999"
   enable-background="new 0 0 128.882 98"
   xml:space="preserve"
   sodipodi:docname="logo.svg"
   inkscape:version="1.1.2 (b8e25be833, 2022-02-05)"
   inkscape:export-filename="C:\Users\renev\Documents\betterUfora\logo.png"
   inkscape:export-xdpi="322.31699"
   inkscape:export-ydpi="322.31699"
   xmlns:inkscape="http://www.inkscape.org/namespaces/inkscape"
   xmlns:sodipodi="http://sodipodi.sourceforge.net/DTD/sodipodi-0.dtd"
   xmlns="http://www.w3.org/2000/svg"
   xmlns:svg="http://www.w3.org/2000/svg"><defs
   id="defs31"><rect
     x="49.701187"
     y="2.4363327"
     width="118.04032"
     height="41.661289"
     id="rect5379" /></defs><sodipodi:namedview
   id="namedview29"
   pagecolor="#ffffff"
   bordercolor="#666666"
   borderopacity="1.0"
   inkscape:pageshadow="2"
   inkscape:pageopacity="0.0"
   inkscape:pagecheckerboard="0"
   showgrid="false"
   fit-margin-top="2"
   fit-margin-left="2"
   fit-margin-right="2"
   fit-margin-bottom="2"
   inkscape:zoom="6.3223352"
   inkscape:cx="83.7507"
   inkscape:cy="23.88358"
   inkscape:window-width="3440"
   inkscape:window-height="1377"
   inkscape:window-x="-8"
   inkscape:window-y="-8"
   inkscape:window-maximized="1"
   inkscape:current-layer="g26"
   inkscape:snap-text-baseline="false" />
<g
   id="g26"
   transform="translate(1.588,2)"
   inkscape:export-filename="C:\Users\renev\Documents\betterUfora\g26.png"
   inkscape:export-xdpi="322.31699"
   inkscape:export-ydpi="322.31699">
	
	
	
	
	
	
	
	
	
	
	
	<g
   id="g839"
   style="fill:#ffbf00;fill-opacity:1"
   inkscape:export-filename="C:\Users\renev\Documents\betterUfora\text5377.png"
   inkscape:export-xdpi="322.31699"
   inkscape:export-ydpi="322.31699"><rect
     x="5.559"
     y="16.676001"
     fill="#1e64c8"
     width="7"
     height="16.677"
     id="rect4"
     style="fill:#ffbf00;fill-opacity:1;stroke-width:1.68311" /><rect
     x="18.807301"
     y="16.676001"
     fill="#1e64c8"
     width="7"
     height="16.677"
     id="rect10"
     style="fill:#ffbf00;fill-opacity:1;stroke-width:1.68311" /><rect
     x="31.81197"
     y="16.919634"
     fill="#1e64c8"
     width="7"
     height="16.677"
     id="rect16"
     style="fill:#ffbf00;fill-opacity:1;stroke-width:1.68311" /><rect
     x="3.0880001"
     y="36.028999"
     fill="#1E64C8"
     width="38.5"
     height="2.471"
     id="rect18"
     style="fill:#ffbf00;fill-opacity:1" /><polygon
     fill="#1E64C8"
     points="41.588,11.529 38.912,14 5.559,14 3.088,11.529 "
     id="polygon20"
     style="fill:#ffbf00;fill-opacity:1" /><rect
     x="0.412"
     y="41.175999"
     fill="#1E64C8"
     width="43.646999"
     height="2.471"
     id="rect22"
     style="fill:#ffbf00;fill-opacity:1" /><polygon
     fill="#1E64C8"
     points="44.059,7.824 22.235,0 0.412,7.824 0.412,10.294 22.235,2.471 44.059,10.294 "
     id="polygon24"
     style="fill:#ffbf00;fill-opacity:1" /></g>
<g
   aria-label="BetterUfora"
   transform="matrix(1.3272375,0,0,1.3272375,-23.372291,7.1543888)"
   id="text5377"
   style="font-size:16px;line-height:1.25;white-space:pre;shape-inside:url(#rect5379);fill:#ffbf00"><path
     d="M 51.193359,17.121657 V 5.5591566 h 3 q 1.734375,0 2.65625,0.65625 0.929688,0.65625 0.929688,1.890625 0,1 -0.617188,1.78125 -0.617187,0.7812504 -1.757812,1.2109374 2.835937,0.867188 2.835937,3.132813 0,1.015625 -0.625,1.804687 -0.476562,0.601563 -1.148437,0.84375 -0.671875,0.242188 -1.867188,0.242188 z m 1.625,-1.226563 h 0.335938 q 1.804687,0 2.335937,-0.226562 1.015625,-0.429688 1.015625,-1.59375 0,-1.03125 -0.921875,-1.710938 -0.921875,-0.6875 -2.304687,-0.6875 h -0.460938 z m 0,-5.257812 h 0.523438 q 1.320312,0 2.039062,-0.5625 0.71875,-0.5625004 0.71875,-1.6015629 0,-1.6875 -2.640625,-1.6875 h -0.640625 z"
     style="font-family:'Lucida Sans Unicode';-inkscape-font-specification:'Lucida Sans Unicode, Normal'"
     id="path833" /><path
     d="m 66.662109,16.848219 q -1.546875,0.46875 -2.648437,0.46875 -1.882813,0 -3.0625,-1.242187 -1.179688,-1.25 -1.179688,-3.234375 0,-1.929688 1.039063,-3.1640629 1.046875,-1.234375 2.671875,-1.234375 1.539062,0 2.375,1.1015625 0.84375,1.0937504 0.84375,3.1093754 l -0.0078,0.46875 h -5.351562 q 0.335937,3.023437 2.960937,3.023437 0.960938,0 2.359375,-0.515625 z m -5.25,-4.882812 h 3.742188 q 0,-2.3671879 -1.765625,-2.3671879 -1.773438,0 -1.976563,2.3671879 z"
     style="font-family:'Lucida Sans Unicode';-inkscape-font-specification:'Lucida Sans Unicode, Normal'"
     id="path835" /><path
     d="m 73.138672,17.121657 q -0.710938,0.195312 -1.234375,0.195312 -1.171875,0 -1.828125,-0.671875 -0.65625,-0.671875 -0.65625,-1.867187 V 9.7935316 h -1.0625 v -1.15625 h 1.0625 V 7.0982191 l 1.539062,-0.1484375 v 1.6875 h 2.21875 v 1.15625 h -2.21875 v 4.7031254 q 0,1.664062 1.4375,1.664062 0.304688,0 0.742188,-0.101562 z"
     style="font-family:'Lucida Sans Unicode';-inkscape-font-specification:'Lucida Sans Unicode, Normal'"
     id="path837" /><path
     d="m 79.123047,17.121657 q -0.710938,0.195312 -1.234375,0.195312 -1.171875,0 -1.828125,-0.671875 -0.65625,-0.671875 -0.65625,-1.867187 V 9.7935316 h -1.0625 v -1.15625 h 1.0625 V 7.0982191 l 1.539062,-0.1484375 v 1.6875 h 2.21875 v 1.15625 h -2.21875 v 4.7031254 q 0,1.664062 1.4375,1.664062 0.304688,0 0.742188,-0.101562 z"
     style="font-family:'Lucida Sans Unicode';-inkscape-font-specification:'Lucida Sans Unicode, Normal'"
     id="path839" /><path
     d="m 87.544922,16.848219 q -1.546875,0.46875 -2.648438,0.46875 -1.882812,0 -3.0625,-1.242187 -1.179687,-1.25 -1.179687,-3.234375 0,-1.929688 1.039062,-3.1640629 1.046875,-1.234375 2.671875,-1.234375 1.539063,0 2.375,1.1015625 0.84375,1.0937504 0.84375,3.1093754 l -0.0078,0.46875 h -5.351563 q 0.335938,3.023437 2.960938,3.023437 0.960937,0 2.359375,-0.515625 z m -5.25,-4.882812 h 3.742187 q 0,-2.3671879 -1.765625,-2.3671879 -1.773437,0 -1.976562,2.3671879 z"
     style="font-family:'Lucida Sans Unicode';-inkscape-font-specification:'Lucida Sans Unicode, Normal'"
     id="path841" /><path
     d="M 90.240234,17.121657 V 8.6372816 h 1.539063 v 1.5937504 q 0.914062,-1.7812504 2.65625,-1.7812504 0.234375,0 0.492187,0.039063 v 1.4375 q -0.398437,-0.1328125 -0.703125,-0.1328125 -1.460937,0 -2.445312,1.7343754 v 5.59375 z"
     style="font-family:'Lucida Sans Unicode';-inkscape-font-specification:'Lucida Sans Unicode, Normal'"
     id="path843" /><path
     d="m 96.646484,5.5591566 h 1.640625 v 7.2968754 q 0,1.742187 0.640625,2.539062 0.648438,0.789063 2.054686,0.789063 1.375,0 1.94531,-0.742188 0.57813,-0.75 0.57813,-2.53125 V 5.5591566 h 1.4375 v 7.3281254 q 0,1.515625 -0.29688,2.328125 -0.29687,0.8125 -1.07031,1.429687 -0.96875,0.765625 -2.66406,0.765625 -2.195313,0 -3.234376,-1.109375 -1.03125,-1.109375 -1.03125,-3.460937 z"
     style="font-family:'Lucida Sans Unicode';-inkscape-font-specification:'Lucida Sans Unicode, Normal'"
     id="path845" /><path
     d="M 108.16211,17.121657 V 9.7935316 h -1.20313 v -1.15625 h 1.20313 v -1.015625 q 0,-3.03125 2.76562,-3.03125 0.77344,0 1.75782,0.2578125 v 1.21875 q -1.03907,-0.3203125 -1.66407,-0.3203125 -0.75781,0 -1.03906,0.3671875 -0.27344,0.359375 -0.27344,1.34375 v 1.1796875 h 2.11719 v 1.15625 h -2.11719 v 7.3281254 z"
     style="font-family:'Lucida Sans Unicode';-inkscape-font-specification:'Lucida Sans Unicode, Normal'"
     id="path847" /><path
     d="m 117.13086,17.316969 q -1.86719,0 -2.96094,-1.195312 -1.08594,-1.195313 -1.08594,-3.242188 0,-2.046875 1.08594,-3.2343749 1.09375,-1.1953125 2.96094,-1.1953125 1.86719,0 2.95312,1.1953125 1.09375,1.1874999 1.09375,3.2343749 0,2.046875 -1.09375,3.242188 -1.08593,1.195312 -2.95312,1.195312 z m 0,-1.15625 q 1.14844,0 1.78125,-0.859375 0.63281,-0.859375 0.63281,-2.421875 0,-1.5625 -0.63281,-2.414062 -0.63281,-0.8593754 -1.78125,-0.8593754 -1.14844,0 -1.78125,0.8593754 -0.625,0.851562 -0.625,2.414062 0,1.5625 0.625,2.421875 0.63281,0.859375 1.78125,0.859375 z"
     style="font-family:'Lucida Sans Unicode';-inkscape-font-specification:'Lucida Sans Unicode, Normal'"
     id="path849" /><path
     d="M 123.58398,17.121657 V 8.6372816 h 1.53907 v 1.5937504 q 0.91406,-1.7812504 2.65625,-1.7812504 0.23437,0 0.49218,0.039063 v 1.4375 q -0.39843,-0.1328125 -0.70312,-0.1328125 -1.46094,0 -2.44531,1.7343754 v 5.59375 z"
     style="font-family:'Lucida Sans Unicode';-inkscape-font-specification:'Lucida Sans Unicode, Normal'"
     id="path851" /><path
     d="m 134.50586,16.043532 q -1.38281,1.273437 -2.66406,1.273437 -1.05469,0 -1.75,-0.65625 -0.69532,-0.664062 -0.69532,-1.671875 0,-1.390625 1.16407,-2.132812 1.17187,-0.75 3.35937,-0.75 h 0.35938 v -1.023438 q 0,-1.4765624 -1.53907,-1.4765624 -1.19531,0 -2.60937,0.7500004 V 9.0825941 q 1.55469,-0.6328125 2.92969,-0.6328125 1.41406,0 2.08593,0.6484375 0.67188,0.640625 0.67188,1.9843749 v 3.84375 q 0,1.320313 0.8125,1.320313 0.10156,0 0.29687,-0.03125 l 0.10938,0.851562 q -0.52344,0.25 -1.15625,0.25 -1.07813,0 -1.375,-1.273437 z m -0.22656,-0.835938 v -2.195312 l -0.49219,-0.01563 q -1.28125,0 -2.07031,0.476562 -0.78125,0.476563 -0.78125,1.265625 0,0.554688 0.39062,0.9375 0.39063,0.382813 0.95313,0.382813 0.96093,0 2,-0.851563 z"
     style="font-family:'Lucida Sans Unicode';-inkscape-font-specification:'Lucida Sans Unicode, Normal'"
     id="path853" /></g></g>
</svg>
